<svg width="1600" height="840" viewBox="0 0 1600 840" xmlns="http://www.w3.org/2000/svg">
  <defs>
    <linearGradient id="HG" x1="0" y1="0" x2="1600" y2="840" gradientUnits="userSpaceOnUse"><stop offset="0" stop-color="#38BDF8"/><stop offset="1" stop-color="#2563EB"/></linearGradient>
    <linearGradient id="HBg" x1="0" y1="0" x2="1600" y2="840" gradientUnits="userSpaceOnUse">
      <stop offset="0" stop-color="#131C34"/><stop offset="1" stop-color="#1A2747"/></linearGradient>
    <pattern id="HGrid" width="54" height="54" patternUnits="userSpaceOnUse">
      <rect x="4" y="4" width="46" height="46" rx="11" fill="none" stroke="#38BDF8" stroke-opacity="0.05" stroke-width="2"/>
    </pattern>
  </defs>
  <rect width="1600" height="840" fill="url(#HBg)"/>
  <rect width="1600" height="840" fill="url(#HGrid)"/>
  <text x="800" y="150" text-anchor="middle" font-family="Inter, 'Segoe UI', sans-serif" font-size="58" font-weight="700" fill="#E8EDF5" letter-spacing="-1.5">One person. Many personas.</text>
  <text x="800" y="205" text-anchor="middle" font-family="Inter, 'Segoe UI', sans-serif" font-size="25" fill="#9FB3D1">Every VS Code profile is you, optimized for a different job.</text><circle cx="190" cy="349" r="17.5" fill="none" stroke="#38BDF8" stroke-opacity="0.4" stroke-width="3"/><rect x="134.5" y="379.5" width="31" height="31" rx="7.5" fill="none" stroke="#38BDF8" stroke-opacity="0.4" stroke-width="3"/><rect x="174.5" y="379.5" width="31" height="31" rx="7.5" fill="none" stroke="#38BDF8" stroke-opacity="0.4" stroke-width="3"/><rect x="214.5" y="379.5" width="31" height="31" rx="7.5" fill="none" stroke="#38BDF8" stroke-opacity="0.4" stroke-width="3"/><rect x="174.5" y="419.5" width="31" height="31" rx="7.5" fill="none" stroke="#38BDF8" stroke-opacity="0.4" stroke-width="3"/><text x="190" y="530" text-anchor="middle" font-family="Inter, 'Segoe UI', sans-serif" font-size="24" font-weight="400" fill="#9FB3D1">Work</text><circle cx="434" cy="349" r="17.5" fill="none" stroke="#38BDF8" stroke-opacity="0.4" stroke-width="3"/><rect x="378.5" y="379.5" width="31" height="31" rx="7.5" fill="none" stroke="#38BDF8" stroke-opacity="0.4" stroke-width="3"/><rect x="418.5" y="379.5" width="31" height="31" rx="7.5" fill="none" stroke="#38BDF8" stroke-opacity="0.4" stroke-width="3"/><rect x="458.5" y="379.5" width="31" height="31" rx="7.5" fill="none" stroke="#38BDF8" stroke-opacity="0.4" stroke-width="3"/><rect x="418.5" y="419.5" width="31" height="31" rx="7.5" fill="none" stroke="#38BDF8" stroke-opacity="0.4" stroke-width="3"/><text x="434" y="530" text-anchor="middle" font-family="Inter, 'Segoe UI', sans-serif" font-size="24" font-weight="400" fill="#9FB3D1">Public</text><circle cx="678" cy="349" r="17.5" fill="none" stroke="#38BDF8" stroke-opacity="0.4" stroke-width="3"/><rect x="622.5" y="379.5" width="31" height="31" rx="7.5" fill="none" stroke="#38BDF8" stroke-opacity="0.4" stroke-width="3"/><rect x="662.5" y="379.5" width="31" height="31" rx="7.5" fill="none" stroke="#38BDF8" stroke-opacity="0.4" stroke-width="3"/><rect x="702.5" y="379.5" width="31" height="31" rx="7.5" fill="none" stroke="#38BDF8" stroke-opacity="0.4" stroke-width="3"/><rect x="662.5" y="419.5" width="31" height="31" rx="7.5" fill="none" stroke="#38BDF8" stroke-opacity="0.4" stroke-width="3"/><text x="678" y="530" text-anchor="middle" font-family="Inter, 'Segoe UI', sans-serif" font-size="24" font-weight="400" fill="#9FB3D1">Private</text><circle cx="922" cy="349" r="19" fill="#F5A623"/><rect x="865.0" y="378" width="34" height="34" rx="9" fill="url(#HG)"/><rect x="905.0" y="378" width="34" height="34" rx="9" fill="url(#HG)"/><rect x="945.0" y="378" width="34" height="34" rx="9" fill="url(#HG)"/><rect x="905.0" y="418" width="34" height="34" rx="9" fill="url(#HG)"/><text x="922" y="530" text-anchor="middle" font-family="Inter, 'Segoe UI', sans-serif" font-size="24" font-weight="700" fill="#F5A623">Blogging</text><rect x="864" y="548" width="116" height="30" rx="15" fill="none" stroke="#F5A623" stroke-width="2"/><text x="922" y="569" text-anchor="middle" font-family="Inter, 'Segoe UI', sans-serif" font-size="15" font-weight="600" fill="#F5A623">ACTIVE</text><circle cx="1166" cy="349" r="17.5" fill="none" stroke="#38BDF8" stroke-opacity="0.4" stroke-width="3"/><rect x="1110.5" y="379.5" width="31" height="31" rx="7.5" fill="none" stroke="#38BDF8" stroke-opacity="0.4" stroke-width="3"/><rect x="1150.5" y="379.5" width="31" height="31" rx="7.5" fill="none" stroke="#38BDF8" stroke-opacity="0.4" stroke-width="3"/><rect x="1190.5" y="379.5" width="31" height="31" rx="7.5" fill="none" stroke="#38BDF8" stroke-opacity="0.4" stroke-width="3"/><rect x="1150.5" y="419.5" width="31" height="31" rx="7.5" fill="none" stroke="#38BDF8" stroke-opacity="0.4" stroke-width="3"/><text x="1166" y="530" text-anchor="middle" font-family="Inter, 'Segoe UI', sans-serif" font-size="24" font-weight="400" fill="#9FB3D1">.NET Projects</text><circle cx="1410" cy="349" r="17.5" fill="none" stroke="#38BDF8" stroke-opacity="0.4" stroke-width="3"/><rect x="1354.5" y="379.5" width="31" height="31" rx="7.5" fill="none" stroke="#38BDF8" stroke-opacity="0.4" stroke-width="3"/><rect x="1394.5" y="379.5" width="31" height="31" rx="7.5" fill="none" stroke="#38BDF8" stroke-opacity="0.4" stroke-width="3"/><rect x="1434.5" y="379.5" width="31" height="31" rx="7.5" fill="none" stroke="#38BDF8" stroke-opacity="0.4" stroke-width="3"/><rect x="1394.5" y="419.5" width="31" height="31" rx="7.5" fill="none" stroke="#38BDF8" stroke-opacity="0.4" stroke-width="3"/><text x="1410" y="530" text-anchor="middle" font-family="Inter, 'Segoe UI', sans-serif" font-size="24" font-weight="400" fill="#9FB3D1">Demo Mode</text><text x="800" y="700" text-anchor="middle" font-family="Inter, 'Segoe UI', sans-serif" font-size="22" fill="#6B7FA3">Profile Extension Manager — see, install, and clean up extensions across every profile.</text></svg>