<svg width="256" height="256" viewBox="0 0 256 256" xmlns="http://www.w3.org/2000/svg">
  <defs><linearGradient id="CellGradient" x1="0" y1="0" x2="154" y2="214" gradientUnits="userSpaceOnUse"><stop offset="0" stop-color="#38BDF8"/><stop offset="1" stop-color="#2563EB"/></linearGradient></defs>
  <rect width="256" height="256" rx="56" fill="#16213E"/>
  <g transform="translate(51,21)"><circle cx="23"  cy="23" r="21.5" fill="none" stroke="#38BDF8" stroke-opacity="0.4" stroke-width="3"/><circle cx="77"  cy="23" r="23" fill="#F5A623"/><circle cx="131" cy="23" r="21.5" fill="none" stroke="#38BDF8" stroke-opacity="0.4" stroke-width="3"/><rect x="0" y="60" width="46" height="46" rx="11" fill="url(#CellGradient)"/><rect x="54" y="60" width="46" height="46" rx="11" fill="url(#CellGradient)"/><rect x="108" y="60" width="46" height="46" rx="11" fill="url(#CellGradient)"/><rect x="1.5" y="115.5" width="43" height="43" rx="9.5" fill="none" stroke="#38BDF8" stroke-opacity="0.4" stroke-width="3"/><rect x="54" y="114" width="46" height="46" rx="11" fill="url(#CellGradient)"/><rect x="108" y="114" width="46" height="46" rx="11" fill="url(#CellGradient)"/><rect x="1.5" y="169.5" width="43" height="43" rx="9.5" fill="none" stroke="#38BDF8" stroke-opacity="0.4" stroke-width="3"/><rect x="54" y="168" width="46" height="46" rx="11" fill="url(#CellGradient)"/><rect x="109.5" y="169.5" width="43" height="43" rx="9.5" fill="none" stroke="#38BDF8" stroke-opacity="0.4" stroke-width="3"/></g>
</svg>